<svg width="220" height="220" viewBox="0 0 220 220" fill="none" xmlns="http://www.w3.org/2000/svg">
<g clip-path="url(#clip0_17_2)">
<path d="M192.5 0H27.5C12.3122 0 0 12.3122 0 27.5V192.5C0 207.688 12.3122 220 27.5 220H192.5C207.688 220 220 207.688 220 192.5V27.5C220 12.3122 207.688 0 192.5 0Z" fill="url(#paint0_linear_17_2)"/>
<g filter="url(#filter0_i_17_2)">
<path d="M27.5 192.5H192.5" stroke="white" stroke-width="5"/>
</g>
<g filter="url(#filter1_d_17_2)">
<mask id="mask0_17_2" style="mask-type:alpha" maskUnits="userSpaceOnUse" x="-24" y="-24" width="209" height="209">
<path d="M184.538 -5.86303L-5.86365 -23.4445L-23.4451 166.957L166.957 184.539L184.538 -5.86303Z" fill="white"/>
<path fill-rule="evenodd" clip-rule="evenodd" d="M64.7083 136.692L24.4015 64.7088L96.3849 24.4021L136.692 96.3856L93.5016 120.57L85.4401 106.173L114.234 90.0503L90.0495 46.8601L46.8596 71.0441L79.1048 128.631L64.7083 136.692ZM83.7142 69.3182L69.3177 77.3794L77.3789 91.7763L91.7755 83.7147L83.7142 69.3182Z" fill="white"/>
</mask>
<g mask="url(#mask0_17_2)">
<path d="M24.4015 64.7088L23.0579 62.3093L20.6585 63.6528L22.002 66.0525L24.4015 64.7088ZM64.7083 136.692L62.3088 138.036L63.6523 140.435L66.0518 139.092L64.7083 136.692ZM96.3849 24.4021L98.7843 23.0585L97.4408 20.6591L95.0414 22.0026L96.3849 24.4021ZM136.692 96.3856L138.035 98.7851L140.435 97.4413L139.091 95.0419L136.692 96.3856ZM93.5016 120.57L91.1022 121.913L92.4457 124.313L94.8452 122.969L93.5016 120.57ZM85.4402 106.173L84.0967 103.773L81.6972 105.117L83.0407 107.517L85.4402 106.173ZM114.234 90.0503L115.577 92.4498L117.977 91.106L116.633 88.7066L114.234 90.0503ZM90.0496 46.8601L92.449 45.5166L91.1055 43.1172L88.7061 44.4607L90.0496 46.8601ZM46.8596 71.0441L45.5158 68.6447L43.1164 69.9884L44.4602 72.3879L46.8596 71.0441ZM79.1048 128.631L80.4486 131.03L82.848 129.687L81.5043 127.287L79.1048 128.631ZM69.3177 77.3794L67.9739 74.98L65.5745 76.3238L66.918 78.7232L69.3177 77.3794ZM83.7142 69.3182L86.1137 67.9747L84.7702 65.5753L82.3707 66.9188L83.7142 69.3182ZM77.3789 91.7762L74.9795 93.1197L76.323 95.5192L78.7224 94.1757L77.3789 91.7762ZM91.7755 83.7147L93.1192 86.1144L95.5187 84.7707L94.1752 82.3713L91.7755 83.7147ZM22.002 66.0525L62.3088 138.036L67.1077 135.349L26.8009 63.3653L22.002 66.0525ZM95.0414 22.0026L23.0579 62.3093L25.745 67.1082L97.7284 26.8015L95.0414 22.0026ZM139.091 95.0419L98.7843 23.0585L93.9854 25.7456L134.292 97.7291L139.091 95.0419ZM94.8452 122.969L138.035 98.7851L135.348 93.9859L92.1582 118.17L94.8452 122.969ZM83.0407 107.517L91.1022 121.913L95.9011 119.226L87.8396 104.829L83.0407 107.517ZM112.89 87.6506L84.0967 103.773L86.7839 108.572L115.577 92.4498L112.89 87.6506ZM87.6501 48.2036L111.834 91.3938L116.633 88.7066L92.449 45.5166L87.6501 48.2036ZM48.2031 73.4435L91.393 49.2595L88.7061 44.4607L45.5158 68.6447L48.2031 73.4435ZM81.5043 127.287L49.259 69.7006L44.4602 72.3879L76.7054 129.974L81.5043 127.287ZM66.0518 139.092L80.4486 131.03L77.7613 126.231L63.3648 134.293L66.0518 139.092ZM70.6612 79.7789L85.0577 71.7176L82.3707 66.9188L67.9739 74.98L70.6612 79.7789ZM79.7783 90.4328L71.7171 76.0359L66.918 78.7232L74.9795 93.1197L79.7783 90.4328ZM90.432 81.3153L76.0354 89.3768L78.7224 94.1757L93.1192 86.1144L90.432 81.3153ZM81.3148 70.6617L89.376 85.0585L94.1752 82.3713L86.1137 67.9747L81.3148 70.6617Z" fill="white"/>
</g>
<path d="M71.0428 114.232L56.6461 122.293L64.7075 136.69L79.1042 128.629L71.0428 114.232Z" fill="#FF8080"/>
<path d="M62.9797 99.8407L48.583 107.902L56.6444 122.299L71.0411 114.237L62.9797 99.8407Z" fill="#FFB280"/>
<path d="M54.9235 85.4433L40.5269 93.5046L48.5882 107.901L62.9849 99.84L54.9235 85.4433Z" fill="#FFE580"/>
<path d="M46.861 71.0455L32.4644 79.1068L40.5257 93.5035L54.9224 85.4421L46.861 71.0455Z" fill="#E5FF80"/>
<path d="M24.4014 64.7088L38.798 56.6476L46.8596 71.0441L32.4627 79.1056L24.4014 64.7088Z" fill="#B2FF80"/>
<path d="M38.7993 56.6459L53.1961 48.5847L61.2573 62.9815L46.8608 71.0428L38.7993 56.6459Z" fill="#80FF80"/>
<path d="M53.1973 48.5835L67.5939 40.5219L75.6554 54.9188L61.2586 62.98L53.1973 48.5835Z" fill="#80FFB2"/>
<path d="M67.5946 40.5273L81.9914 32.4661L90.0526 46.8626L75.6561 54.9241L67.5946 40.5273Z" fill="#80FFE5"/>
<path d="M81.9858 32.4642L96.3826 24.4027L104.444 38.7995L90.0473 46.8607L81.9858 32.4642Z" fill="white"/>
<path d="M90.0485 46.862L104.445 38.8008L112.507 53.1973L98.1098 61.2588L90.0485 46.862Z" fill="#80B2FF"/>
<path d="M98.1113 61.26L112.508 53.1985L120.569 67.5953L106.173 75.6565L98.1113 61.26Z" fill="#8080FF"/>
<path d="M106.175 75.6512L120.571 67.5897L128.633 81.9865L114.236 90.0478L106.175 75.6512Z" fill="#B280FF"/>
<path d="M114.231 90.0484L128.627 81.9871L136.689 96.3837L122.292 104.445L114.231 90.0484Z" fill="#E580FF"/>
<path d="M99.8394 98.1118L114.236 90.0503L122.297 104.447L107.901 112.508L99.8394 98.1118Z" fill="#FF80E5"/>
<path d="M85.4413 106.175L99.8382 98.113L107.899 112.51L93.5029 120.571L85.4413 106.175Z" fill="#FF80B2"/>
<path d="M69.3161 77.3787L83.7127 69.3172L91.7742 83.7141L77.3773 91.7753L69.3161 77.3787Z" fill="black"/>
</g>
<g filter="url(#filter2_di_17_2)">
<path d="M110 192.5H192.5L151.25 110L110 192.5Z" fill="url(#paint1_linear_17_2)"/>
<path d="M110 192.5H192.5L151.25 110L110 192.5Z" stroke="white" stroke-width="5"/>
</g>
<path d="M194.156 2H25.8442C12.6754 2 2 12.6754 2 25.8442V194.156C2 207.325 12.6754 218 25.8442 218H194.156C207.325 218 218 207.325 218 194.156V25.8442C218 12.6754 207.325 2 194.156 2Z" stroke="white" stroke-width="5"/>
</g>
<defs>
<filter id="filter0_i_17_2" x="27.5" y="190" width="165" height="5.5" filterUnits="userSpaceOnUse" color-interpolation-filters="sRGB">
<feFlood flood-opacity="0" result="BackgroundImageFix"/>
<feBlend mode="normal" in="SourceGraphic" in2="BackgroundImageFix" result="shape"/>
<feColorMatrix in="SourceAlpha" type="matrix" values="0 0 0 0 0 0 0 0 0 0 0 0 0 0 0 0 0 0 127 0" result="hardAlpha"/>
<feOffset dy="0.5"/>
<feGaussianBlur stdDeviation="0.5"/>
<feComposite in2="hardAlpha" operator="arithmetic" k2="-1" k3="1"/>
<feColorMatrix type="matrix" values="0 0 0 0 0 0 0 0 0 0 0 0 0 0 0 0 0 0 0.5 0"/>
<feBlend mode="normal" in2="shape" result="effect1_innerShadow_17_2"/>
</filter>
<filter id="filter1_d_17_2" x="-2.34155" y="1.65906" width="165.776" height="165.776" filterUnits="userSpaceOnUse" color-interpolation-filters="sRGB">
<feFlood flood-opacity="0" result="BackgroundImageFix"/>
<feColorMatrix in="SourceAlpha" type="matrix" values="0 0 0 0 0 0 0 0 0 0 0 0 0 0 0 0 0 0 127 0" result="hardAlpha"/>
<feOffset dy="4"/>
<feGaussianBlur stdDeviation="11.5"/>
<feComposite in2="hardAlpha" operator="out"/>
<feColorMatrix type="matrix" values="0 0 0 0 0 0 0 0 0 0 0 0 0 0 0 0 0 0 0.55 0"/>
<feBlend mode="normal" in2="BackgroundImageFix" result="effect1_dropShadow_17_2"/>
<feBlend mode="normal" in="SourceGraphic" in2="effect1_dropShadow_17_2" result="shape"/>
</filter>
<filter id="filter2_di_17_2" x="93.955" y="101.41" width="114.59" height="114.59" filterUnits="userSpaceOnUse" color-interpolation-filters="sRGB">
<feFlood flood-opacity="0" result="BackgroundImageFix"/>
<feColorMatrix in="SourceAlpha" type="matrix" values="0 0 0 0 0 0 0 0 0 0 0 0 0 0 0 0 0 0 127 0" result="hardAlpha"/>
<feOffset dy="9"/>
<feGaussianBlur stdDeviation="6"/>
<feComposite in2="hardAlpha" operator="out"/>
<feColorMatrix type="matrix" values="0 0 0 0 0 0 0 0 0 0 0 0 0 0 0 0 0 0 0.4 0"/>
<feBlend mode="normal" in2="BackgroundImageFix" result="effect1_dropShadow_17_2"/>
<feBlend mode="normal" in="SourceGraphic" in2="effect1_dropShadow_17_2" result="shape"/>
<feColorMatrix in="SourceAlpha" type="matrix" values="0 0 0 0 0 0 0 0 0 0 0 0 0 0 0 0 0 0 127 0" result="hardAlpha"/>
<feOffset dy="0.5"/>
<feGaussianBlur stdDeviation="0.5"/>
<feComposite in2="hardAlpha" operator="arithmetic" k2="-1" k3="1"/>
<feColorMatrix type="matrix" values="0 0 0 0 0 0 0 0 0 0 0 0 0 0 0 0 0 0 0.5 0"/>
<feBlend mode="normal" in2="shape" result="effect2_innerShadow_17_2"/>
</filter>
<linearGradient id="paint0_linear_17_2" x1="110" y1="0" x2="110" y2="220" gradientUnits="userSpaceOnUse">
<stop stop-color="#2A3B66"/>
<stop offset="1" stop-color="#131D31"/>
</linearGradient>
<linearGradient id="paint1_linear_17_2" x1="151.25" y1="110" x2="151.25" y2="192.5" gradientUnits="userSpaceOnUse">
<stop/>
<stop offset="1" stop-opacity="0"/>
</linearGradient>
<clipPath id="clip0_17_2">
<rect width="220" height="220" fill="white"/>
</clipPath>
</defs>
</svg>
