<svg id="ezCUTfxYtoI1" xmlns="http://www.w3.org/2000/svg" xmlns:xlink="http://www.w3.org/1999/xlink" viewBox="0 0 150 80" shape-rendering="geometricPrecision" text-rendering="geometricPrecision"><style><![CDATA[#ezCUTfxYtoI5_to{animation:1.7s linear infinite forwards ezCUTfxYtoI5_to__to}@keyframes ezCUTfxYtoI5_to__to{0%{transform:translate(34.554794px,68.7915px)}47.058824%{transform:translate(-120.169612px,68.7915px)}60.588235%{transform:translate(-161.084018px,68.7915px)}100%{transform:translate(-210.084018px,68.7915px)}}#ezCUTfxYtoI7_to{animation:1.7s linear infinite forwards ezCUTfxYtoI7_to__to}@keyframes ezCUTfxYtoI7_to__to{0%{transform:translate(25.825676px,68.7915px)}52.941176%{transform:translate(-137.846914px,68.7915px)}100%{transform:translate(-305.961926px,68.7915px)}}#ezCUTfxYtoI9_to{animation:1.7s linear infinite forwards ezCUTfxYtoI9_to__to}@keyframes ezCUTfxYtoI9_to__to{0%{transform:translate(259.007618px,68.7915px)}47.058824%,52.941176%{transform:translate(46.825674px,68.7915px)}100%{transform:translate(-136.92541px,68.7915px)}}#ezCUTfxYtoI11_to{animation:1.7s linear infinite forwards ezCUTfxYtoI11_to__to}@keyframes ezCUTfxYtoI11_to__to{0%,52.941176%{transform:translate(2.929px,2.929px);animation-timing-function:cubic-bezier(0.25,0.46,0.45,0.94)}23.529412%,76.470588%{transform:translate(1.065127px,.218677px);animation-timing-function:cubic-bezier(0.55,0.085,0.68,0.53)}100%,47.058824%{transform:translate(2.929px,2.929px)}}#ezCUTfxYtoI11_tr{animation:1.7s linear infinite forwards ezCUTfxYtoI11_tr__tr}@keyframes ezCUTfxYtoI11_tr__tr{0%{transform:rotate(0)}47.058824%,52.941176%{transform:rotate(180deg)}100%{transform:rotate(360deg)}}]]></style><g transform="matrix(12.5 0 0 12.5 37-19)" clip-rule="evenodd"><g clip-rule="evenodd"><g transform="matrix(.039117 0 0 0.039117 1.60832 4.17402)" clip-rule="evenodd"><g id="ezCUTfxYtoI5_to" transform="translate(34.554794,68.7915)"><path d="M144.993,87.583h-57.493L68.75,50L50,87.583h-134.064" transform="translate(-30.4645,-68.7915)" clip-rule="evenodd" fill="none" fill-rule="evenodd" stroke="#fff" stroke-width="4.09" stroke-miterlimit="10"/></g></g><g transform="matrix(.039117 0 0 0.039117 8.32832 4.17402)" clip-rule="evenodd"><g id="ezCUTfxYtoI7_to" transform="translate(46.825676,68.7915)"><path d="M144.993,87.583h-57.493L68.75,50L50,87.583l-124.682646.002189" transform="translate(-30.4645,-68.7915)" clip-rule="evenodd" fill="none" fill-rule="evenodd" stroke="#fff" stroke-width="4.09" stroke-miterlimit="10"/></g></g><g transform="matrix(.039117 0 0 0.039117 8.32832 4.17402)" clip-rule="evenodd"><g id="ezCUTfxYtoI9_to" transform="translate(259.007618,68.7915)"><path d="M144.993,87.583h-57.493L68.75,50L50,87.583l-124.682646.002189" transform="translate(-30.4645,-68.7915)" clip-rule="evenodd" fill="none" fill-rule="evenodd" stroke="#fff" stroke-width="4.09" stroke-miterlimit="10"/></g></g><g transform="matrix(.661305 0.454774-.454774 0.661305 1.07936 3.12675)" clip-rule="evenodd"><g id="ezCUTfxYtoI11_to" transform="translate(2.929,2.929)"><g id="ezCUTfxYtoI11_tr" transform="rotate(0)"><path d="M0.843,2.543l-.057-.082-.082.056.057.083.082-.057Zm1.7,2.472l-.082.057.056.082.083-.057-.057-.082Zm.772-4.172l.082-.057-.057-.082-.082.057.057.082Zm1.7,2.472l.057.082.082-.057-.057-.082-.082.057ZM3.532,4.335l-.083.057.057.082.083-.057-.057-.082Zm-.34-.494l-.057-.083-.082.057.056.082.083-.056Zm.989-.681l.056.083.083-.057-.057-.082-.082.056ZM3.16,1.677l.083-.056-.057-.083-.082.057.056.082ZM1.677,2.698l-.056-.083-.083.057.057.082.082-.056ZM3.038,4.675l.056.082.083-.056-.057-.083-.082.057ZM2.512,2.852l-.057-.083-.082.057.056.083.083-.057Zm.494-.34l.083-.057-.057-.082-.083.056.057.083Zm-.154.834l-.083.057.057.082.082-.056-.056-.083Zm.494-.34l.057.083.082-.057-.056-.083-.083.057ZM0.761,2.6l1.7,2.472.165-.114L0.925,2.487L0.761,2.6ZM3.258,0.761l-2.472,1.7.114.165L3.371,0.925l-.113-.164ZM5.097,3.258l-1.7-2.472-.165.114L4.933,3.371l.164-.113ZM3.589,4.417l1.483-1.02-.114-.165-1.483,1.02.114.165Zm-.48-.52l.34.495.165-.114-.34-.494-.165.113Zm1.015-.819l-.989.68.114.165.988-.68-.113-.165ZM3.078,1.734l1.02,1.483.165-.113-1.02-1.483-.165.113ZM1.734,2.78L3.217,1.76l-.113-.165-1.483,1.02.113.165ZM3.12,4.618L1.76,2.641l-.165.113l1.36,1.978.165-.114Zm-.52.479l.494-.34-.113-.164-.494.34.113.164ZM2.568,2.934l.495-.34-.114-.165-.494.34.113.165Zm.366.356l-.34-.495-.165.114.34.494.165-.113Zm.355-.366l-.494.34.113.165.495-.34-.114-.165Zm-.365-.356l.34.495.165-.114-.34-.494-.165.113Z" transform="translate(-2.929,-2.929)" clip-rule="evenodd" fill="#fff" stroke-miterlimit="10"/></g></g></g></g></g></svg>